<svg width="189" height="189" viewBox="0 0 189 189" fill="none" xmlns="http://www.w3.org/2000/svg">
<g clip-path="url(#clip0)">
<path d="M94.074 188.148C146.03 188.148 188.148 146.03 188.148 94.074C188.148 42.1184 146.03 0 94.074 0C42.1184 0 0 42.1184 0 94.074C0 146.03 42.1184 188.148 94.074 188.148Z" fill="#915EEB"/>
<mask id="mask0" mask-type="alpha" maskUnits="userSpaceOnUse" x="0" y="0" width="189" height="189">
<path d="M94.074 188.148C146.03 188.148 188.148 146.03 188.148 94.074C188.148 42.1184 146.03 0 94.074 0C42.1184 0 0 42.1184 0 94.074C0 146.03 42.1184 188.148 94.074 188.148Z" fill="#915EEB"/>
</mask>
<g mask="url(#mask0)">
<path d="M148.613 200.741V200.751H39.5381V200.741C39.5381 194.583 40.5561 188.65 42.4481 183.129C42.7871 182.132 43.1571 181.145 43.5581 180.168V180.158C43.9581 179.181 44.3801 178.225 44.8321 177.279C46.6321 173.485 48.8731 169.938 51.4741 166.689C52.1321 165.877 52.8001 165.085 53.4901 164.324C53.8291 163.933 54.1891 163.553 54.5491 163.173C54.9091 162.803 55.2691 162.433 55.6391 162.063C57.4801 160.223 59.4531 158.537 61.5311 156.984C62.5691 156.213 63.6181 155.493 64.7081 154.794C65.7981 154.105 66.9081 153.447 68.0391 152.83C68.0601 152.81 68.0801 152.81 68.0801 152.81C68.5221 152.574 68.9541 152.317 69.3861 152.049C70.2401 151.535 71.0821 150.98 71.8851 150.384C72.2961 150.096 72.6871 149.798 73.0771 149.479C74.0021 148.739 74.8961 147.947 75.7501 147.114C76.0271 146.837 76.3061 146.559 76.5831 146.271C77.1581 145.674 77.7031 145.047 78.2281 144.41C78.4861 144.102 78.7431 143.783 78.9791 143.464C79.2261 143.146 79.4621 142.817 79.6991 142.487C81.5291 139.937 82.9991 137.131 84.0791 134.138C85.3851 130.498 86.0941 126.581 86.0941 122.489L94.0421 122.53L102.215 122.571C102.215 126.611 102.904 130.487 104.179 134.086C105.239 137.088 106.708 139.895 108.508 142.445C110.379 145.097 112.61 147.462 115.139 149.487C115.52 149.796 115.9 150.094 116.281 150.371C116.651 150.649 117.031 150.916 117.422 151.173C117.505 151.235 117.576 151.286 117.659 151.338C118.029 151.585 118.399 151.832 118.79 152.058C119.211 152.315 119.644 152.572 120.075 152.809C120.146 152.829 120.209 152.86 120.26 152.902C121.165 153.406 122.06 153.93 122.934 154.475C123.355 154.732 123.777 154.999 124.188 155.298C125.042 155.853 125.875 156.439 126.686 157.056C126.686 157.067 126.697 157.067 126.697 157.067H126.707C128.784 158.619 130.748 160.315 132.588 162.146C142.496 172.015 148.613 185.648 148.613 200.741Z" fill="#ECC19C"/>
<path d="M148.614 200.743H39.5391C39.5391 194.584 40.5581 188.652 42.4491 183.131C42.7881 182.133 43.1581 181.147 43.5591 180.17C43.5481 180.159 43.5591 180.159 43.5591 180.159C43.9501 179.182 44.3811 178.226 44.8331 177.281C46.6331 173.487 48.8741 169.94 51.4751 166.691C52.1331 165.878 52.8021 165.087 53.4911 164.326C53.8301 163.935 54.1901 163.555 54.5501 163.175C54.9101 162.805 55.2701 162.435 55.6401 162.065C57.4811 160.225 59.4541 158.538 61.5321 156.986C62.5701 156.215 63.6191 155.495 64.7091 154.796C65.7991 154.097 66.9091 153.439 68.0401 152.822C68.0611 152.802 68.0811 152.812 68.0811 152.812V152.802C68.5231 152.555 68.9551 152.308 69.3871 152.051C70.6721 151.27 71.9071 150.406 73.0581 149.46C73.0681 149.47 73.0681 149.47 73.0791 149.48C78.4041 154.929 85.8171 158.311 94.0431 158.332H94.1251C102.35 158.332 109.794 154.939 115.14 149.49L115.151 149.48C115.88 150.086 116.641 150.652 117.423 151.176C117.505 151.237 117.577 151.289 117.659 151.34C118.029 151.587 118.409 151.823 118.79 152.06C119.212 152.317 119.644 152.564 120.075 152.8C120.147 152.82 120.198 152.861 120.26 152.892C121.165 153.396 122.06 153.92 122.934 154.475C123.355 154.732 123.777 154.999 124.188 155.298C125.042 155.843 125.875 156.439 126.686 157.056H126.707C128.795 158.619 130.758 160.315 132.588 162.145C142.497 172.017 148.614 185.65 148.614 200.743Z" fill="#C7D4E2"/>
<path d="M135.938 52.784V84.05C135.938 84.503 135.927 84.955 135.917 85.407C135.897 86.343 135.845 87.278 135.763 88.203C135.743 88.522 135.711 88.84 135.67 89.159C135.536 90.485 135.352 91.791 135.115 93.087C135.032 93.519 134.95 93.94 134.857 94.362C134.847 94.454 134.827 94.537 134.806 94.619C134.723 95.051 134.62 95.473 134.518 95.894C134.477 96.12 134.415 96.346 134.364 96.573C134.312 96.768 134.261 96.964 134.2 97.159C133.983 98.002 133.737 98.825 133.479 99.647C133.356 100.038 133.233 100.418 133.099 100.809C133.088 100.85 133.068 100.891 133.058 100.932C132.934 101.281 132.811 101.631 132.688 101.98C132.647 102.083 132.606 102.185 132.564 102.299C132.441 102.628 132.318 102.957 132.184 103.286C132.03 103.687 131.866 104.078 131.701 104.469C131.557 104.819 131.403 105.168 131.249 105.518C131.229 105.58 131.197 105.631 131.177 105.692C131.002 106.062 130.838 106.433 130.663 106.792C130.488 107.172 130.303 107.553 130.107 107.934C129.737 108.684 129.336 109.435 128.935 110.165C128.75 110.494 128.565 110.823 128.379 111.152C126.796 113.877 125.038 116.437 123.126 118.801C122.868 119.14 122.602 119.469 122.324 119.788C121.943 120.25 121.552 120.703 121.162 121.145C120.812 121.536 120.463 121.926 120.103 122.307C119.116 123.366 118.108 124.374 117.08 125.32C116.875 125.526 116.658 125.711 116.442 125.906C116.093 126.225 115.744 126.533 115.383 126.831C115.106 127.078 114.818 127.314 114.529 127.551C113.789 128.157 113.049 128.743 112.299 129.288C111.99 129.525 111.671 129.751 111.353 129.967C110.839 130.337 110.315 130.687 109.79 131.026C109.502 131.221 109.204 131.406 108.905 131.581C107.856 132.229 106.798 132.825 105.749 133.339C105.492 133.472 105.235 133.596 104.978 133.719C104.72 133.842 104.454 133.966 104.176 134.089C103.836 134.243 103.497 134.387 103.158 134.521C103.024 134.583 102.89 134.634 102.757 134.675C102.357 134.84 101.945 134.994 101.544 135.127C101.04 135.312 100.526 135.466 100.023 135.61C99.6731 135.713 99.3141 135.805 98.9641 135.887C98.9431 135.898 98.9231 135.908 98.8921 135.908C98.5421 135.99 98.1931 136.073 97.8431 136.134C97.7501 136.155 97.6591 136.175 97.5661 136.185C97.2781 136.236 96.9901 136.288 96.7021 136.319C96.2911 136.381 95.8801 136.432 95.4691 136.453C95.3261 136.473 95.1921 136.484 95.0471 136.484C94.7191 136.505 94.3901 136.515 94.0701 136.515H94.0401C93.7211 136.515 93.4021 136.505 93.0841 136.484C92.9601 136.484 92.8371 136.474 92.7131 136.453C92.4261 136.443 92.1271 136.411 91.8191 136.37C91.7571 136.37 91.6851 136.36 91.6241 136.35C91.2431 136.299 90.8631 136.237 90.4721 136.165C90.1441 136.114 89.8151 136.041 89.4751 135.959C87.7171 135.558 85.9081 134.952 84.0781 134.139C82.5151 133.45 80.9321 132.618 79.3591 131.651C78.5671 131.168 77.7751 130.654 76.9941 130.109C76.6031 129.831 76.2131 129.554 75.8221 129.266C74.5981 128.371 73.3851 127.395 72.1921 126.346C71.8641 126.048 71.5351 125.75 71.2061 125.441C70.8771 125.143 70.5481 124.835 70.2291 124.537C69.4261 123.766 68.6451 122.964 67.8841 122.131C67.5861 121.813 67.2881 121.484 66.9891 121.144C66.1671 120.219 65.3651 119.263 64.6041 118.265C64.3051 117.905 64.0281 117.535 63.7501 117.165C62.7121 115.788 61.7251 114.348 60.7991 112.857C60.5531 112.456 60.3061 112.044 60.0701 111.644C59.7821 111.161 59.5051 110.668 59.2271 110.174C58.1991 108.323 57.2521 106.401 56.4301 104.416C56.3071 104.128 56.1831 103.84 56.0801 103.553C55.9151 103.183 55.7711 102.802 55.6381 102.432C55.4331 101.887 55.2381 101.342 55.0521 100.797C54.8671 100.252 54.6931 99.697 54.5181 99.142C54.3531 98.607 54.1991 98.073 54.0551 97.528C53.8901 96.952 53.7371 96.366 53.6031 95.77C53.5921 95.708 53.5721 95.647 53.5621 95.585C53.3671 94.763 53.1921 93.93 53.0381 93.087C52.8321 91.976 52.6681 90.845 52.5441 89.704C52.4931 89.344 52.4621 88.984 52.4311 88.624C52.3901 88.244 52.3601 87.873 52.3391 87.493C52.2871 86.804 52.2561 86.105 52.2351 85.406C52.2251 84.953 52.2141 84.501 52.2141 84.049V52.784C52.2141 29.682 70.9371 10.95 94.0391 10.929H94.0801C97.2681 10.929 100.372 11.288 103.353 11.957C106.078 12.574 108.7 13.458 111.188 14.579C114.581 16.101 117.737 18.054 120.575 20.388C122.96 22.342 125.13 24.542 127.021 26.968C132.607 34.083 135.938 43.038 135.938 52.784Z" fill="#ECC19C"/>
<path d="M135.938 84.05C135.938 84.503 135.927 84.955 135.917 85.407C135.897 86.343 135.845 87.278 135.763 88.203C135.743 88.522 135.711 88.84 135.67 89.159C135.536 90.485 135.352 91.791 135.115 93.087C135.032 93.519 134.95 93.94 134.857 94.362C134.847 94.454 134.827 94.537 134.806 94.619C134.723 95.051 134.62 95.473 134.518 95.894C134.466 96.141 134.405 96.377 134.332 96.614C134.302 96.799 134.25 96.984 134.199 97.159C133.982 98.002 133.736 98.825 133.478 99.647C133.355 100.038 133.232 100.418 133.098 100.809C133.087 100.85 133.067 100.891 133.057 100.932C132.933 101.281 132.81 101.631 132.687 101.98C132.646 102.083 132.605 102.185 132.563 102.299C132.44 102.628 132.317 102.957 132.183 103.286C132.029 103.687 131.865 104.078 131.7 104.469C131.556 104.819 131.402 105.168 131.248 105.518C131.228 105.58 131.196 105.631 131.176 105.692C131.001 106.062 130.837 106.433 130.662 106.792C130.487 107.172 130.302 107.553 130.106 107.934C129.736 108.684 129.335 109.435 128.934 110.165C128.749 110.494 128.564 110.823 128.378 111.152C126.795 113.877 125.037 116.437 123.125 118.801C122.867 119.14 122.601 119.469 122.323 119.788C121.942 120.25 121.551 120.703 121.161 121.145C120.811 121.536 120.462 121.926 120.102 122.307C119.115 123.366 118.107 124.374 117.079 125.32C116.874 125.526 116.657 125.711 116.441 125.906C116.092 126.225 115.743 126.533 115.382 126.831C115.105 127.078 114.817 127.314 114.528 127.551C113.788 128.157 113.048 128.743 112.298 129.288C111.989 129.525 111.67 129.751 111.352 129.967C110.838 130.337 110.314 130.687 109.789 131.026C109.501 131.221 109.203 131.406 108.904 131.581C107.855 132.229 106.797 132.825 105.748 133.339C105.491 133.472 105.234 133.596 104.977 133.719C104.719 133.842 104.453 133.966 104.175 134.089C103.835 134.243 103.496 134.387 103.157 134.521C103.023 134.583 102.889 134.634 102.756 134.675C102.356 134.84 101.944 134.994 101.543 135.127C101.039 135.312 100.525 135.466 100.022 135.61C99.6719 135.713 99.3129 135.805 98.9629 135.887C98.9419 135.898 98.9219 135.908 98.8909 135.908C98.5409 135.99 98.1919 136.073 97.8419 136.134C97.7489 136.155 97.6579 136.175 97.5649 136.185C97.2769 136.236 96.9889 136.288 96.7009 136.319C96.2899 136.381 95.8789 136.432 95.4679 136.453C95.3249 136.473 95.1909 136.484 95.0459 136.484C94.7179 136.505 94.3889 136.515 94.0689 136.515H94.0389C93.7199 136.515 93.4009 136.505 93.0829 136.484C92.9589 136.484 92.8359 136.474 92.7119 136.453C92.4249 136.443 92.1259 136.411 91.8179 136.37C91.7559 136.37 91.6839 136.36 91.6229 136.35C91.2419 136.299 90.8619 136.237 90.4709 136.165C90.1429 136.114 89.8139 136.041 89.4739 135.959C87.7159 135.558 85.9069 134.952 84.0769 134.139C82.5139 133.45 80.9309 132.618 79.3579 131.651C78.5659 131.178 77.7849 130.664 76.9929 130.109C76.6019 129.831 76.2119 129.554 75.8209 129.266C74.5969 128.371 73.3839 127.395 72.1909 126.346C71.8629 126.048 71.5339 125.75 71.2049 125.441C70.8759 125.143 70.5469 124.835 70.2279 124.537C69.4249 123.766 68.6439 122.964 67.8829 122.131C67.5849 121.813 67.2869 121.484 66.9879 121.144C66.1659 120.219 65.3639 119.263 64.6029 118.265C64.3039 117.905 64.0269 117.535 63.7489 117.165C62.7109 115.788 61.7239 114.348 60.7979 112.857C60.5519 112.456 60.3049 112.044 60.0689 111.644C59.7809 111.161 59.5039 110.668 59.2259 110.174C58.1979 108.323 57.2509 106.401 56.4289 104.416C56.3059 104.128 56.1819 103.84 56.0789 103.553C55.9139 103.183 55.7699 102.802 55.6369 102.432C55.4319 101.887 55.2369 101.342 55.0509 100.797C54.8659 100.252 54.6919 99.697 54.5169 99.142C54.3519 98.607 54.1979 98.073 54.0539 97.528C53.8889 96.952 53.7359 96.366 53.6019 95.77C53.5909 95.708 53.5709 95.647 53.5609 95.585C53.3659 94.763 53.1909 93.93 53.0369 93.087C52.8309 91.976 52.6669 90.845 52.5429 89.704C52.4919 89.344 52.4609 88.984 52.4299 88.624C52.3889 88.244 52.3589 87.873 52.3379 87.493C52.2859 86.804 52.2549 86.105 52.2339 85.406C52.2239 84.953 52.2129 84.501 52.2129 84.049L58.8969 97.189L70.3809 102.196L83.9619 103.42L94.0379 104.335H94.0999L103.528 105.189L124.533 107.081L135.938 84.05Z" fill="#543E36"/>
<path d="M127.023 26.968C124.977 31.605 122.314 35.913 119.168 39.82C118.983 40.047 118.798 40.273 118.603 40.499C112.157 48.261 103.706 54.297 94.041 57.823C91.501 58.759 88.88 59.519 86.186 60.085C84.387 60.465 82.557 60.764 80.696 60.98C78.557 61.216 76.378 61.34 74.168 61.34C71.639 61.34 69.161 61.175 66.725 60.857C64.339 60.559 62.005 60.117 59.723 59.521C58.417 59.192 57.142 58.812 55.877 58.39C54.633 57.979 53.42 57.526 52.217 57.033V52.787C52.217 29.685 70.94 10.953 94.042 10.932H94.083C97.271 10.932 100.375 11.291 103.356 11.96C106.081 12.577 108.703 13.461 111.191 14.582C114.584 16.104 117.74 18.057 120.578 20.391C122.962 22.341 125.132 24.542 127.023 26.968Z" fill="#543E36"/>
<path d="M135.938 52.784V61.019C128.802 55.498 122.891 48.517 118.624 40.539C118.614 40.529 118.614 40.508 118.603 40.498C114.409 32.664 111.807 23.873 111.191 14.578C114.584 16.1 117.74 18.053 120.578 20.387C122.963 22.341 125.133 24.541 127.024 26.967C132.607 34.083 135.938 43.038 135.938 52.784Z" fill="#543E36"/>
<path d="M57.1201 56.013C56.6791 56.784 56.2771 57.576 55.8761 58.388C55.7231 58.706 55.5681 59.046 55.4141 59.375C53.3891 63.878 52.3701 68.299 52.2261 72.289C52.2261 72.402 52.2151 72.525 52.2151 72.639V56.517C52.2151 55.941 52.2361 55.375 52.2361 54.82C53.8611 55.242 55.4851 55.653 57.1201 56.013Z" fill="#543E36"/>
<path d="M131.054 56.013C131.676 57.106 132.231 58.226 132.764 59.374C134.852 64.017 135.874 68.552 135.962 72.642V56.512C135.962 55.945 135.941 55.378 135.941 54.824C134.318 55.243 132.697 55.648 131.054 56.013Z" fill="#543E36"/>
<path d="M94.1231 90.65L94.1121 100.788L94.1021 104.335V107.121L94.0911 116.374V116.384L94.0811 116.374H94.0701L94.0401 116.353L53.6041 95.771C53.5931 95.709 53.5731 95.648 53.5631 95.586C53.3681 94.764 53.1931 93.931 53.0391 93.088C52.8331 91.977 52.6691 90.846 52.5451 89.705C52.4941 89.345 52.4631 88.985 52.4321 88.625C52.3911 88.245 52.3611 87.874 52.3401 87.494C52.2881 86.805 52.2571 86.106 52.2361 85.407C52.2261 84.954 52.2151 84.502 52.2151 84.05V71.764C52.2151 71.939 52.2261 72.114 52.2261 72.288C52.3081 75.259 52.7811 78.529 53.6961 81.87C54.4061 84.44 55.2901 86.815 56.3181 88.933V88.943C59.0121 94.547 62.6211 98.35 65.9411 98.967C66.1471 98.998 66.3631 99.018 66.5691 99.039C67.8541 99.183 69.2011 99.265 70.5891 99.265C75.8321 99.265 80.4901 95.05 83.4201 93.343C83.4411 93.333 83.4611 93.322 83.4821 93.312C83.6361 93.219 83.7911 93.127 83.9241 93.034C83.9651 93.003 84.0061 92.983 84.0471 92.962C86.5151 91.553 90.0721 90.659 94.0411 90.649H94.1231V90.65Z" fill="#543E36"/>
<path d="M135.947 71.764L135.937 84.05C135.937 87.135 135.649 90.157 135.115 93.088C134.898 94.26 134.652 95.421 134.364 96.573L124.874 110.278L94.092 116.375H94.082L94.071 116.385V116.375L94.041 90.648H94.123C98.092 90.658 101.659 91.553 104.127 92.961C104.168 92.982 104.198 93.002 104.24 93.033C104.384 93.126 104.538 93.218 104.692 93.311C104.702 93.321 104.722 93.332 104.743 93.342C107.684 95.049 112.331 99.267 117.575 99.267C118.963 99.267 120.309 99.185 121.594 99.041C121.81 99.02 122.016 99 122.232 98.969C125.543 98.352 129.162 94.548 131.845 88.945V88.935C132.872 86.817 133.757 84.442 134.466 81.872C135.392 78.479 135.875 75.169 135.937 72.156C135.947 72.021 135.947 71.897 135.947 71.764Z" fill="#543E36"/>
<path d="M94.0741 107.125C99.7378 107.125 104.329 105.706 104.329 103.955C104.329 102.204 99.7378 100.785 94.0741 100.785C88.4104 100.785 83.8191 102.204 83.8191 103.955C83.8191 105.706 88.4104 107.125 94.0741 107.125Z" fill="#ECC19C"/>
<path d="M64.131 155.174V211.732H59.762V158.362C60.348 157.889 60.934 157.426 61.531 156.984C62.384 156.347 63.247 155.75 64.131 155.174Z" fill="#435363"/>
<path d="M124.021 155.185V200.741V211.732H128.39V200.741V158.372L124.021 155.185Z" fill="#435363"/>
<path d="M82.113 151.713L94.074 166.049L106.036 151.713H82.113Z" fill="#141720"/>
<path d="M94.074 225.437H87.001L92.111 159.637C92.326 160.474 95.823 160.474 96.038 159.637L101.148 225.437H94.074Z" fill="#141720"/>
<path d="M94.0701 151.638L94.0401 151.689L94.0291 151.71L89.0631 160.048L84.4261 167.82L71.8721 150.373C72.2731 150.085 72.6741 149.777 73.0551 149.458C73.0651 149.468 73.0651 149.468 73.0761 149.479C75.5941 147.474 77.8361 145.12 79.6971 142.488L94.0401 151.618L94.0701 151.638Z" fill="#E7ECF2"/>
<path d="M116.278 150.373L103.724 167.82L99.0871 160.048L94.1101 151.71L94.0691 151.638L108.505 142.447C110.376 145.099 112.607 147.464 115.136 149.489C115.518 149.797 115.897 150.096 116.278 150.373Z" fill="#E7ECF2"/>
</g>
</g>
<defs>
<clipPath id="clip0">
<rect width="188.148" height="188.148" fill="white"/>
</clipPath>
</defs>
</svg>
