<svg width="65" height="65" viewBox="0 0 65 65" fill="none" xmlns="http://www.w3.org/2000/svg">
<path d="M60.294 32.644C60.294 49.015 47.02 62.287 30.646 62.287C14.273 62.287 1 49.015 1 32.644C1 16.272 14.273 3 30.646 3C47.02 3 60.294 16.272 60.294 32.644Z" fill="#EDC951"/>
<path d="M45.7781 43.768H17.7781C16.9501 43.768 16.2781 43.096 16.2781 42.268C16.2781 41.439 16.9501 40.768 17.7781 40.768H45.7781C46.6061 40.768 47.2781 41.439 47.2781 42.268C47.2781 43.096 46.6061 43.768 45.7781 43.768Z" fill="black"/>
<path d="M44.998 22.984C44.998 24.965 43.3909 26.57 41.4109 26.57C39.4309 26.57 37.825 24.965 37.825 22.984C37.825 21.004 39.4309 19.399 41.4109 19.399C43.3909 19.399 44.998 21.004 44.998 22.984Z" fill="black"/>
<path d="M24.3761 22.984C24.3761 24.965 22.7701 26.57 20.7901 26.57C18.8091 26.57 17.2041 24.965 17.2041 22.984C17.2041 21.004 18.8091 19.399 20.7901 19.399C22.7701 19.399 24.3761 21.004 24.3761 22.984Z" fill="black"/>
<path d="M31.147 62.29C13.973 62.29 0 48.319 0 31.147C0 13.975 13.973 0.0039978 31.147 0.0039978C48.321 0.0039978 62.294 13.975 62.294 31.147C62.294 48.319 48.321 62.29 31.147 62.29ZM31.147 3.004C15.627 3.004 3 15.628 3 31.147C3 46.666 15.627 59.291 31.147 59.291C46.668 59.291 59.294 46.666 59.294 31.147C59.294 15.628 46.668 3.004 31.147 3.004Z" fill="black"/>
</svg>
