<svg width="189" height="189" viewBox="0 0 189 189" fill="none" xmlns="http://www.w3.org/2000/svg">
<g clip-path="url(#clip0)">
<path d="M94.075 188.15C145.889 188.15 188.15 145.89 188.15 94.076C188.15 42.2609 145.89 0.000976562 94.075 0.000976562C42.2599 0.000976562 0 42.2609 0 94.0756C0 145.89 42.2599 188.15 94.075 188.15Z" fill="#915EEB"/>
<path d="M62.6598 110.978C54.8148 91.1866 38.3359 73.2749 59.0721 37.1953C67.6123 22.3358 80.6575 12.5359 94.1337 15.8538C107.61 12.5362 120.655 22.3362 129.195 37.1953C149.931 73.2749 133.453 91.1866 125.607 110.978L94.1348 111.056L62.6609 110.978H62.6598Z" fill="#666666"/>
<path d="M41.1245 141.918C40.1404 143.507 37.6853 157.017 34.97 167.259C51.1237 180.321 71.6838 188.149 94.074 188.149C116.465 188.149 137.025 180.321 153.179 167.259C150.462 157.018 148.008 143.506 147.024 141.918C131.911 117.515 108.615 128.168 107.027 100.244C107.027 100.244 99.5326 105.836 93.8102 105.887C88.0874 105.938 81.1137 100.596 81.1137 100.596C79.5292 128.497 56.2269 117.534 41.1245 141.918Z" fill="#FED198"/>
<path d="M107.433 104.188C107.245 102.964 107.107 101.655 107.027 100.244C107.027 100.244 99.5325 105.837 93.8101 105.888C88.0873 105.939 81.1136 100.597 81.1136 100.597C81.0328 102.033 80.8909 103.362 80.6973 104.602C80.8439 104.718 80.9894 104.835 81.1386 104.95L81.1368 104.97C81.5774 105.354 88.2762 111.114 93.809 111.056C99.3418 111.114 106.04 105.353 106.481 104.97L106.48 104.95C106.805 104.701 107.12 104.445 107.431 104.188L107.433 104.188Z" fill="#F0B97D"/>
<path d="M81.1375 100.615C81.5781 100.947 88.2769 105.937 93.8097 105.887C99.3424 105.937 106.04 100.947 106.482 100.615C114.845 95.7393 121.707 81.365 120.158 65.7864C118.889 53.0252 105.084 71.7366 95.4696 45.4066C81.8614 73.9128 68.9364 57.0506 67.4628 67.8538C65.8385 79.7569 72.5211 94.7339 81.1375 100.615V100.615V100.615Z" fill="#FED198"/>
<path d="M70.1578 120.575C61.9222 124.974 46.8566 125.107 41.1243 134.323C40.1258 135.928 37.6196 155.588 34.8628 167.173C51.0312 180.286 71.6333 188.149 94.0727 188.149C116.514 188.149 137.114 180.287 153.284 167.173C150.527 155.588 147.719 136.08 147.022 134.323C143.216 124.722 125.596 124.322 117.352 119.895C104.534 166.398 85.4296 169.568 70.1586 120.579L70.1556 120.575H70.1578V120.575Z" fill="#FBB429"/>
<path d="M75.6493 115.953C75.1142 130.421 77.5742 150.918 93.808 156.156C78.5245 156.795 68.6069 134.774 57.3091 129.006L75.6489 115.954V115.953H75.6493Z" fill="white"/>
<path d="M112.877 115.953C113.438 130.421 110.856 150.918 93.8083 156.156C109.857 156.795 120.272 134.774 132.134 129.006L112.876 115.954L112.877 115.953Z" fill="white"/>
</g>
<defs>
<clipPath id="clip0">
<rect width="188.15" height="188.15" fill="white"/>
</clipPath>
</defs>
</svg>
